<svg xmlns="http://www.w3.org/2000/svg" viewBox="0 0 512 512" role="img" aria-labelledby="title desc">
  <title id="title">AJYN favicon</title>
  <desc id="desc">A winged black A mark with an orange dot on a warm ivory background.</desc>
  <rect width="512" height="512" fill="#f4eee6" />
  <path
    fill="#202124"
    d="M58 158c48 54 133 54 219 102-70-21-154-7-209-74-6-8-9-17-10-28Z"
  />
  <path
    fill="#202124"
    d="M72 231c51 57 146 37 214 91-69-18-157 12-210-61-7-10-8-20-4-30Z"
  />
  <path
    fill="#202124"
    d="M220 392 328 118h27l111 274h-49L340 171 266 392h-46Z"
  />
  <path
    fill="#f4eee6"
    d="M299 321 342 195l52 126H299Z"
  />
  <path
    fill="none"
    stroke="#202124"
    stroke-linecap="round"
    stroke-width="17"
    d="M264 262c47 17 90 45 139 70"
  />
  <circle cx="430" cy="130" r="22" fill="#b85b0e" />
</svg>
